# xmcd
#
# Track frame offsets:
#	150
#	13752
#	25837
#	39204
#
# Disc length: 712 seconds
#
# Revision: 2
# Processed by: cddbd v1.5.2PL0 Copyright (c) Steve Scherf et al.
# Submitted via: EasyCDDAExtractor 2010.6.0.0
#
DISCID=2202c604
DTITLE=Various Artist - Simolle hilloo
DYEAR=1900
DGENRE=Showtunes
TTITLE0=M ja Rytmijäte - Simolle hilloo!
TTITLE1=M ja Rytmijäte feat. Pekka Myllykoski - Rotestilaulu
TTITLE2=M ja Rytmijäte feat. Veltto Virtanen - Politiikkalaulu
TTITLE3=M ja Rytmijäte feat. Pekka Myllykoski - Tenkka-tenkka-poo
EXTD=
EXTT0=
EXTT1=
EXTT2=
EXTT3=
PLAYORDER=
